<?xml version="1.0" encoding="utf-8"?>
<!-- Generator: Adobe Illustrator 16.0.4, SVG Export Plug-In . SVG Version: 6.00 Build 0)  -->
<!DOCTYPE svg PUBLIC "-//W3C//DTD SVG 1.1//EN" "http://www.w3.org/Graphics/SVG/1.1/DTD/svg11.dtd">
<svg version="1.1" id="Ebene_1" xmlns="http://www.w3.org/2000/svg" xmlns:xlink="http://www.w3.org/1999/xlink" x="0px" y="0px"
	 width="514px" height="174px" viewBox="0 0 514 174" enable-background="new 0 0 514 174" xml:space="preserve">
<path fill="#D4021D" d="M446.345,0.396c-25.482,0-46.211,7.856-60.857,24.12c2.086-5.646,3.185-12.531,3.327-20.64h-89.309
	c-19.487,0-30.624,8.582-38.278,30.621l3.946-30.621h-90.242c-16.522,0-27.864,7.899-31.962,23.37
	C131.787,9.326,111.917,0.398,86.778,0.398c-47.784,0-78.871,27.606-84.44,86.529l-0.696,7.425
	c-4.872,52.66,22.737,78.64,65.648,78.64c47.791,0,78.877-27.836,84.444-86.762l0.696-7.418c1.256-13.514,0.339-25.255-2.426-35.262
	h40.469l-11.597,99.288c-2.322,19.717,8.351,28.762,26.21,28.762c10.903,0,14.615-0.694,18.791-1.39l14.384-126.66h47.091
	l-11.6,99.288c-2.316,19.717,8.353,28.762,26.216,28.762c10.9,0,14.616-0.694,18.79-1.39l14.381-126.66h23.2
	c8.025,0,14.505-1.866,19.511-5.554c-7.307,12.87-12.074,29.124-13.945,48.934l-0.697,7.424
	c-4.871,52.662,22.733,78.64,65.649,78.64c47.789,0,78.872-27.836,84.441-86.76l0.695-7.419
	C516.869,26.377,489.265,0.396,446.345,0.396z M104.642,75.558l-0.465,5.566c-3.245,39.898-16.237,52.195-32.244,52.195
	c-14.384,0-24.587-9.742-22.502-35.725l0.461-5.805c3.25-39.665,16.243-52.193,32.249-52.193
	C96.29,39.6,106.73,49.577,104.642,75.558z M464.212,75.558l-0.466,5.566c-3.248,39.898-16.237,52.195-32.245,52.195
	c-14.384,0-24.593-9.742-22.503-35.725l0.465-5.805c3.249-39.665,16.238-52.193,32.244-52.193
	C455.859,39.6,466.298,49.577,464.212,75.558z"/>
</svg>
